<svg width="64" height="64" viewBox="0 0 64 64" fill="none" xmlns="http://www.w3.org/2000/svg">
<path d="M9.75542 26.4126C8.95318 32.5554 8.47516 38.7363 8.32333 44.9295C16.7198 48.4377 24.7593 52.7462 32.3304 57.7954C39.9025 52.7461 47.9429 48.4376 56.3404 44.9295C56.1885 38.7363 55.7105 32.5554 54.9083 26.4126M54.9083 26.4126C57.4604 25.5548 60.0475 24.7613 62.6608 24.0378C53.1425 17.3634 42.982 11.6559 32.3304 7C21.6787 11.6569 11.5182 17.3654 2 24.0407C4.60538 24.7602 7.19052 25.5511 9.7525 26.4126C17.536 29.0301 25.088 32.2914 32.3304 36.1626C39.5718 32.2914 47.1258 29.0301 54.9083 26.4126ZM17.0179 40.5709C17.5981 40.5709 18.1545 40.3403 18.5647 39.93C18.9749 39.5196 19.2054 38.9631 19.2054 38.3828C19.2054 37.8025 18.9749 37.2459 18.5647 36.8356C18.1545 36.4252 17.5981 36.1947 17.0179 36.1947C16.4378 36.1947 15.8814 36.4252 15.4711 36.8356C15.0609 37.2459 14.8304 37.8025 14.8304 38.3828C14.8304 38.9631 15.0609 39.5196 15.4711 39.93C15.8814 40.3403 16.4378 40.5709 17.0179 40.5709ZM17.0179 40.5709V29.8493C21.9667 26.7724 27.0784 23.9656 32.3304 21.4413M11.8933 55.1376C13.5208 53.5137 14.8113 51.5842 15.6907 49.4598C16.5702 47.3355 17.0212 45.0582 17.0179 42.7589V38.3828" stroke="#003B6F" stroke-opacity="0.4" stroke-width="1.5" stroke-linecap="round" stroke-linejoin="round"/>
</svg>
