<svg width="64" height="64" viewBox="0 0 64 64" fill="none" xmlns="http://www.w3.org/2000/svg">
<path d="M7 36.6875C7 34.928 8.428 33.5 10.1875 33.5H16.5625C18.322 33.5 19.75 34.928 19.75 36.6875V55.8125C19.75 57.572 18.322 59 16.5625 59H10.1875C9.34212 59 8.53137 58.6642 7.9336 58.0664C7.33583 57.4686 7 56.6579 7 55.8125V36.6875ZM26.125 23.9375C26.125 22.178 27.553 20.75 29.3125 20.75H35.6875C37.447 20.75 38.875 22.178 38.875 23.9375V55.8125C38.875 57.572 37.447 59 35.6875 59H29.3125C28.4671 59 27.6564 58.6642 27.0586 58.0664C26.4608 57.4686 26.125 56.6579 26.125 55.8125V23.9375ZM45.25 11.1875C45.25 9.428 46.678 8 48.4375 8H54.8125C56.572 8 58 9.428 58 11.1875V55.8125C58 57.572 56.572 59 54.8125 59H48.4375C47.5921 59 46.7814 58.6642 46.1836 58.0664C45.5858 57.4686 45.25 56.6579 45.25 55.8125V11.1875Z" stroke="#003B6F" stroke-opacity="0.4" stroke-width="1.5" stroke-linecap="round" stroke-linejoin="round"/>
</svg>
