<svg width="55" height="55" viewBox="0 0 55 55" fill="none" xmlns="http://www.w3.org/2000/svg">
<path d="M47.3641 7.29688H7.63587C3.41892 7.29688 0 10.7158 0 14.9327V40.0677C0 44.2847 3.41892 47.7036 7.63587 47.7036H47.3641C51.581 47.7036 55 44.2847 55 40.0677V14.9327C55 10.7158 51.581 7.29688 47.3641 7.29688ZM19.1389 34.56L8.44615 43.6823C7.69194 44.326 6.55811 44.2365 5.91454 43.4815C5.27087 42.7273 5.36035 41.5935 6.11542 40.9499L16.8082 31.8276C17.5623 31.184 18.696 31.2734 19.3397 32.0285C19.9834 32.7826 19.8939 33.9164 19.1389 34.56ZM27.5 31.092C26.0698 31.0885 24.6834 30.6132 23.5995 29.6759L23.6004 29.6767L23.5969 29.6741C23.5978 29.675 23.5988 29.675 23.5995 29.6759L7.19318 15.4361C6.44338 14.7854 6.36356 13.6516 7.01336 12.9028C7.66401 12.153 8.79785 12.0732 9.54658 12.723L25.9575 26.9663C26.3083 27.2784 26.8862 27.5038 27.5 27.5002C28.1129 27.5021 28.6811 27.2828 29.0512 26.9601L29.0591 26.9531L45.4533 12.7231C46.2021 12.0733 47.336 12.1531 47.9866 12.9029C48.6363 13.6516 48.5566 14.7855 47.8068 15.4362L31.396 29.6803C30.3156 30.6079 28.9311 31.0902 27.5 31.092ZM49.0862 43.4815C48.4425 44.2365 47.3087 44.326 46.5547 43.6823L35.8619 34.56C35.107 33.9163 35.0175 32.7826 35.6612 32.0285C36.3047 31.2734 37.4386 31.1841 38.1927 31.8276L48.8854 40.9499C49.6404 41.5935 49.7299 42.7273 49.0862 43.4815Z" fill="white"/>
</svg>
