<svg width="61" height="61" viewBox="0 0 61 61" fill="none" xmlns="http://www.w3.org/2000/svg">
<path d="M19.86 4C11.1126 4 4 11.1126 4 19.86V41.82C4 50.5674 11.1126 57.68 19.86 57.68H41.82C50.5674 57.68 57.68 50.5674 57.68 41.82V19.86C57.68 11.1126 50.5674 4 41.82 4H19.86ZM45.48 13.76C46.822 13.76 47.92 14.858 47.92 16.2C47.92 17.542 46.822 18.64 45.48 18.64C44.138 18.64 43.04 17.542 43.04 16.2C43.04 14.858 44.138 13.76 45.48 13.76ZM30.84 17.42C38.2454 17.42 44.26 23.4346 44.26 30.84C44.26 38.2454 38.2454 44.26 30.84 44.26C23.4346 44.26 17.42 38.2454 17.42 30.84C17.42 23.4346 23.4346 17.42 30.84 17.42ZM30.84 19.86C24.7888 19.86 19.86 24.7888 19.86 30.84C19.86 36.8912 24.7888 41.82 30.84 41.82C36.8912 41.82 41.82 36.8912 41.82 30.84C41.82 24.7888 36.8912 19.86 30.84 19.86Z" fill="white"/>
</svg>
