<svg width="68" height="67" viewBox="0 0 68 67" fill="none" xmlns="http://www.w3.org/2000/svg">
<path d="M50.0625 8H16.9375C11.4512 8 7 12.3857 7 17.7914V50.4292C7 55.8349 11.4512 60.2206 16.9375 60.2206H50.0625C55.5488 60.2206 60 55.8349 60 50.4292V17.7914C60 12.3857 55.5488 8 50.0625 8ZM23.3873 52.3279H15.1538L15.1061 28.0378H23.3395L23.3873 52.3279ZM19.0636 24.8603H19.0158C16.3244 24.8603 14.5885 23.0322 14.5885 20.757C14.5885 18.4269 16.3801 16.6616 19.1193 16.6616C21.8585 16.6616 23.5386 18.4269 23.5944 20.757C23.5944 23.0322 21.8505 24.8603 19.0636 24.8603ZM51.9337 52.3279H43.6286V39.1315C43.6286 35.9383 42.7686 33.7651 39.8702 33.7651C37.6565 33.7651 36.4621 35.2322 35.8888 36.6523C35.6738 37.1622 35.6181 37.8605 35.6181 38.5745V52.3279H27.2731L27.2254 28.0378H35.5703L35.6181 31.4663C36.6851 29.8423 38.4608 27.5435 42.7129 27.5435C47.9842 27.5435 51.9258 30.9328 51.9258 38.2214V52.3279H51.9337Z" fill="white"/>
</svg>
