<svg width="52" height="51" viewBox="0 0 52 51" fill="none" xmlns="http://www.w3.org/2000/svg">
<path fill-rule="evenodd" clip-rule="evenodd" d="M2.84698 0H48.3986C49.9709 0 51.2456 1.2536 51.2456 2.8V47.6C51.2456 49.1464 49.9709 50.4 48.3986 50.4H2.84698C1.27463 50.4 0 49.1464 0 47.6V2.8C0 1.2536 1.27463 0 2.84698 0ZM8.27148 38.5977C8.27148 38.8497 8.3996 38.9757 8.65583 38.9757H16.1121C16.1633 38.9757 16.2402 38.9505 16.3427 38.9001C16.4452 38.8497 16.5348 38.6985 16.6117 38.4465C16.6629 38.3205 16.6886 38.1567 16.6886 37.9551C16.7142 37.7535 16.727 37.5897 16.727 37.4637H15.6508C15.2153 37.4637 14.9078 37.4511 14.7284 37.4259C14.2416 37.3755 13.9341 37.1613 13.806 36.7833C13.7035 36.4053 13.6523 35.7375 13.6523 34.7799V16.4847C13.6523 15.6027 13.8701 15.0105 14.3057 14.7081C14.7669 14.3805 15.4715 14.1537 16.4195 14.0277C16.522 13.8765 16.5989 13.7127 16.6501 13.5363C16.7014 13.3347 16.727 13.1835 16.727 13.0827C16.727 12.8307 16.5989 12.7047 16.3427 12.7047H9.0786C9.05298 12.7047 8.97611 12.7299 8.848 12.7803C8.74551 12.8055 8.65583 12.9567 8.57896 13.2339C8.55333 13.3599 8.52771 13.5237 8.50209 13.7253C8.47647 13.9269 8.46365 14.0907 8.46365 14.2167C9.25796 14.2167 9.8601 14.2671 10.2701 14.3679C10.68 14.4435 10.9619 14.6325 11.1156 14.9349C11.2694 15.2373 11.3462 15.7161 11.3462 16.3713V34.7799C11.3462 35.7123 11.1284 36.3927 10.6928 36.8211C10.2829 37.2495 9.55262 37.5267 8.50209 37.6527C8.3996 37.8039 8.33554 37.9803 8.30992 38.1819C8.2843 38.3583 8.27148 38.4969 8.27148 38.5977ZM17.8906 38.5977C17.8906 38.8497 18.0187 38.9757 18.2749 38.9757H24.4244C24.4756 38.9757 24.5525 38.9505 24.655 38.9001C24.7575 38.8497 24.8472 38.6985 24.924 38.4465C24.9753 38.3205 25.0009 38.1567 25.0009 37.9551C25.0265 37.7535 25.0393 37.5897 25.0393 37.4637H24.1553C23.8479 37.4637 23.6044 37.4511 23.4251 37.4259C23.1432 37.3755 22.9126 37.2873 22.7333 37.1613C22.5795 37.0353 22.5027 36.8211 22.5027 36.5187C22.5027 36.1911 22.6436 35.6745 22.9254 34.9689L24.8856 30.3195H36.3774L38.1838 34.9689C38.3888 35.5233 38.4913 35.9517 38.4913 36.2541C38.4913 36.7077 38.3247 37.0353 37.9916 37.2369C37.6586 37.4385 37.1845 37.5771 36.5696 37.6527C36.4671 37.8039 36.403 37.9803 36.3774 38.1819C36.3518 38.3583 36.339 38.4969 36.339 38.5977C36.339 38.8497 36.4671 38.9757 36.7233 38.9757H43.603C43.6543 38.9757 43.7312 38.9505 43.8336 38.9001C43.9361 38.8497 44.0258 38.6985 44.1027 38.4465C44.1539 38.3205 44.1796 38.1567 44.1796 37.9551C44.2052 37.7535 44.218 37.5897 44.218 37.4637H43.4493C43.1931 37.4637 42.9753 37.4511 42.7959 37.4259C42.3091 37.3755 41.9376 37.1865 41.6813 36.8589C41.4251 36.5313 41.1176 35.9013 40.7589 34.9689L31.6884 12.1377H31.3425C31.0094 12.1377 30.7788 12.2889 30.6507 12.5913L21.1575 34.9689C20.7731 35.8509 20.376 36.4935 19.966 36.8967C19.556 37.2999 18.9411 37.5519 18.1212 37.6527C18.0187 37.8039 17.9546 37.9803 17.929 38.1819C17.9034 38.3583 17.8906 38.4969 17.8906 38.5977ZM35.724 28.6185H25.5774L30.6507 16.5225C30.7788 16.2201 30.9069 16.2201 31.0351 16.5225L35.724 28.6185Z" fill="white" fill-opacity="0.6"/>
</svg>
