<svg width="373" height="70" viewBox="0 0 373 70" fill="none" xmlns="http://www.w3.org/2000/svg">
<path d="M0.777875 55.0818C0.2593 55.0818 0 54.8268 0 54.3168C0 54.1128 0.02593 53.8323 0.0777875 53.4753C0.129645 53.0673 0.259295 52.7102 0.466725 52.4042C2.59288 52.1492 4.07083 51.5882 4.90055 50.7212C5.78212 49.8541 6.22291 48.4771 6.22291 46.59V9.3332C6.22291 8.00715 6.06733 7.03811 5.75619 6.42609C5.44504 5.81407 4.8746 5.43156 4.04488 5.27855C3.21516 5.07455 1.99652 4.97254 0.388937 4.97254C0.388937 4.71754 0.414867 4.38602 0.466725 3.97801C0.518582 3.56999 0.570442 3.23848 0.6223 2.98347C0.777872 2.42245 0.95936 2.11644 1.16679 2.06544C1.42608 1.96343 1.58166 1.91244 1.63352 1.91244H16.3351C16.8537 1.91244 17.113 2.16744 17.113 2.67746C17.113 2.88147 17.0611 3.18748 16.9574 3.59549C16.8537 3.95251 16.6981 4.28402 16.4907 4.59003C14.572 4.84504 13.1459 5.30406 12.2125 5.96708C11.3309 6.5791 10.8901 7.77764 10.8901 9.56271V46.59C10.8901 48.5281 10.9938 49.8796 11.2012 50.6447C11.4605 51.4097 12.0828 51.8432 13.0681 51.9452C13.4311 51.9962 14.0534 52.0217 14.935 52.0217C15.8684 52.0217 16.5944 52.0217 17.113 52.0217C17.113 52.2767 17.0871 52.6082 17.0352 53.0163C17.0352 53.4243 16.9833 53.7558 16.8796 54.0108C16.724 54.5208 16.5426 54.8268 16.3351 54.9288C16.1277 55.0308 15.9721 55.0818 15.8684 55.0818H0.777875ZM22.9686 55.0818C22.45 55.0818 22.1907 54.8268 22.1907 54.3168C22.1907 54.1128 22.2166 53.8323 22.2685 53.4753C22.3203 53.0673 22.45 52.7102 22.6574 52.4042C24.3687 52.2002 25.6133 51.7412 26.3911 51.0272C27.2209 50.2622 27.6357 48.9106 27.6357 46.9725V9.3332C27.6357 8.00715 27.532 7.03811 27.3246 6.42609C27.169 5.81407 26.7282 5.43156 26.0022 5.27855C25.3281 5.07455 24.1872 4.97254 22.5796 4.97254C22.5796 4.71754 22.6056 4.38602 22.6574 3.97801C22.7093 3.56999 22.7611 3.23848 22.813 2.98347C22.9686 2.26944 23.3056 1.91244 23.8242 1.91244H41.1705C44.3339 1.91244 47.2897 2.34595 50.0382 3.21298C52.7866 4.02901 55.0165 5.40606 56.7278 7.34413C58.4391 9.2312 59.2947 11.7813 59.2947 14.9944C59.2947 18.7685 58.2057 22.0072 56.0277 24.7102C53.9016 27.4133 50.9197 29.4024 47.0823 30.6775C49.9863 35.3696 52.3718 39.1183 54.2386 41.9234C56.1574 44.7285 57.7909 46.845 59.1392 48.2731C60.4875 49.6501 61.732 50.5682 62.8729 51.0272C64.0656 51.4862 65.4139 51.7157 66.9178 51.7157C66.9178 52.6847 66.7363 53.6283 66.3733 54.5463C65.751 54.9033 65.0509 55.1583 64.2731 55.3113C63.5471 55.4133 62.7692 55.4643 61.9395 55.4643C60.643 55.4643 59.3466 55.0308 58.0502 54.1638C56.7537 53.2968 55.3276 51.6392 53.7719 49.1911L42.6485 31.7485C40.626 32.1055 38.448 32.284 36.1144 32.284C35.4921 32.284 34.8439 32.2585 34.1698 32.2075C33.5475 32.1565 32.9252 32.1055 32.3029 32.0545V47.049C32.3029 48.9361 32.4066 50.2112 32.6141 50.8742C32.8733 51.4862 33.4956 51.8432 34.4809 51.9452C34.8439 51.9962 35.3366 52.0217 35.9589 52.0217C36.633 52.0217 37.2294 52.0217 37.7479 52.0217C37.7479 52.2767 37.722 52.6082 37.6702 53.0163C37.6702 53.4243 37.6183 53.7558 37.5146 54.0108C37.359 54.5208 37.1775 54.8268 36.9701 54.9288C36.7627 55.0308 36.6071 55.0818 36.5034 55.0818H22.9686ZM32.3029 28.2294C34.3772 28.5864 36.3997 28.7649 38.3702 28.7649C41.4298 28.7649 44.1524 28.3314 46.5378 27.4643C48.9232 26.5463 50.816 25.1693 52.2162 23.3332C53.6163 21.4461 54.3164 19.049 54.3164 16.1419C54.3164 12.2658 52.8385 9.4352 49.8826 7.65014C46.9786 5.86508 43.2708 4.97254 38.7592 4.97254C37.4109 4.97254 36.0366 5.04905 34.6365 5.20205C33.0808 5.35506 32.3029 6.12008 32.3029 7.49713V28.2294ZM68.1019 55.0818C67.5833 55.0818 67.324 54.8268 67.324 54.3168C67.324 54.1128 67.3499 53.8323 67.4018 53.4753C67.4536 53.0673 67.5833 52.7102 67.7907 52.4042C69.4502 52.2002 70.6947 51.6902 71.5245 50.8742C72.3542 50.0581 73.158 48.7576 73.9359 46.9725L93.1491 1.68292C93.4083 1.0709 93.8751 0.764893 94.5492 0.764893H95.2493L113.607 46.9725C114.333 48.8596 114.955 50.1347 115.474 50.7977C115.992 51.4607 116.744 51.8432 117.729 51.9452C118.093 51.9962 118.533 52.0217 119.052 52.0217C119.57 52.0217 120.089 52.0217 120.608 52.0217C120.608 52.2767 120.582 52.6082 120.53 53.0163C120.53 53.4243 120.478 53.7558 120.374 54.0108C120.219 54.5208 120.037 54.8268 119.83 54.9288C119.622 55.0308 119.467 55.0818 119.363 55.0818H105.439C104.921 55.0818 104.661 54.8268 104.661 54.3168C104.661 54.1128 104.687 53.8323 104.739 53.4753C104.791 53.0673 104.921 52.7102 105.128 52.4042C106.373 52.2512 107.332 51.9707 108.006 51.5627C108.68 51.1547 109.017 50.4917 109.017 49.5736C109.017 48.9616 108.81 48.0946 108.395 46.9725L104.739 37.5627H81.4811L77.514 46.9725C76.9436 48.4006 76.6584 49.4461 76.6584 50.1091C76.6584 50.7212 76.8139 51.1547 77.1251 51.4097C77.4881 51.6647 77.9548 51.8432 78.5252 51.9452C78.8882 51.9962 79.3809 52.0217 80.0032 52.0217C80.6773 52.0217 81.2737 52.0217 81.7923 52.0217C81.7923 52.2767 81.7663 52.6082 81.7145 53.0163C81.7145 53.4243 81.6626 53.7558 81.5589 54.0108C81.4033 54.5208 81.2218 54.8268 81.0144 54.9288C80.807 55.0308 80.6514 55.0818 80.5477 55.0818H68.1019ZM82.8813 34.1201H103.417L93.9269 9.63921C93.6676 9.02719 93.4083 9.02719 93.1491 9.63921L82.8813 34.1201ZM122.918 54.3168C122.918 54.1128 122.944 53.8323 122.996 53.4753C123.048 53.0673 123.177 52.7102 123.385 52.4042C125.096 52.2002 126.341 51.7412 127.119 51.0272C127.948 50.2622 128.363 48.9106 128.363 46.9725V9.3332C128.363 8.00715 128.259 7.03811 128.052 6.42609C127.896 5.81407 127.456 5.43156 126.73 5.27855C126.056 5.07455 124.915 4.97254 123.307 4.97254C123.307 4.71754 123.333 4.38602 123.385 3.97801C123.437 3.56999 123.489 3.23848 123.54 2.98347C123.696 2.42245 123.878 2.11644 124.085 2.06544C124.344 1.96343 124.5 1.91244 124.552 1.91244H130.619C131.864 1.91244 132.797 2.39695 133.419 3.36598L162.9 45.7485C163.004 45.9015 163.108 45.9525 163.211 45.9015C163.315 45.8505 163.367 45.7485 163.367 45.5955V9.3332C163.367 8.00715 163.211 7.03811 162.9 6.42609C162.589 5.81407 162.019 5.43156 161.189 5.27855C160.359 5.07455 159.141 4.97254 157.533 4.97254C157.533 4.71754 157.559 4.38602 157.611 3.97801C157.663 3.56999 157.715 3.23848 157.766 2.98347C157.922 2.42245 158.103 2.11644 158.311 2.06544C158.57 1.96343 158.726 1.91244 158.778 1.91244H171.535C172.053 1.91244 172.312 2.16744 172.312 2.67746C172.312 2.88147 172.261 3.18748 172.157 3.59549C172.053 3.95251 171.898 4.28402 171.69 4.59003C169.927 4.84504 168.682 5.30406 167.956 5.96708C167.23 6.5791 166.867 7.77764 166.867 9.56271V55.0818H164.612C163.834 55.0818 163.211 54.7503 162.745 54.0873L132.408 10.5572C132.304 10.4042 132.201 10.3532 132.097 10.4042C131.993 10.4552 131.941 10.5572 131.941 10.7102L131.864 46.9725C131.864 48.9106 132.045 50.2112 132.408 50.8742C132.771 51.4862 133.445 51.8432 134.43 51.9452C135.001 51.9962 135.623 52.0217 136.297 52.0217C136.972 52.0217 137.568 52.0217 138.086 52.0217C138.086 52.2767 138.061 52.6082 138.009 53.0163C138.009 53.4243 137.957 53.7558 137.853 54.0108C137.698 54.5208 137.516 54.8268 137.309 54.9288C137.101 55.0308 136.946 55.0818 136.842 55.0818H123.696C123.177 55.0818 122.918 54.8268 122.918 54.3168Z" fill="#003B6F"/>
<path d="M177.065 55.082C176.546 55.082 176.287 54.827 176.287 54.3169C176.287 54.1129 176.313 53.8324 176.365 53.4754C176.417 53.0674 176.546 52.7104 176.754 52.4044C178.413 52.2004 179.658 51.6903 180.488 50.8743C181.317 50.0583 182.121 48.7577 182.899 46.9727L202.112 1.68306C202.371 1.07104 202.838 0.765029 203.512 0.765029H204.212L222.57 46.9727C223.296 48.8597 223.918 50.1348 224.437 50.7978C224.955 51.4608 225.707 51.8434 226.693 51.9454C227.056 51.9964 227.496 52.0219 228.015 52.0219C228.534 52.0219 229.052 52.0219 229.571 52.0219C229.571 52.2769 229.545 52.6084 229.493 53.0164C229.493 53.4244 229.441 53.7559 229.337 54.0109C229.182 54.521 229 54.827 228.793 54.929C228.585 55.031 228.43 55.082 228.326 55.082H214.402C213.884 55.082 213.625 54.827 213.625 54.3169C213.625 54.1129 213.65 53.8324 213.702 53.4754C213.754 53.0674 213.884 52.7104 214.091 52.4044C215.336 52.2514 216.295 51.9709 216.969 51.5628C217.643 51.1548 217.981 50.4918 217.981 49.5738C217.981 48.9618 217.773 48.0947 217.358 46.9727L213.702 37.5628H190.444L186.477 46.9727C185.907 48.4007 185.621 49.4463 185.621 50.1093C185.621 50.7213 185.777 51.1548 186.088 51.4098C186.451 51.6648 186.918 51.8434 187.488 51.9454C187.851 51.9964 188.344 52.0219 188.966 52.0219C189.64 52.0219 190.237 52.0219 190.755 52.0219C190.755 52.2769 190.729 52.6084 190.678 53.0164C190.678 53.4244 190.626 53.7559 190.522 54.0109C190.366 54.521 190.185 54.827 189.977 54.929C189.77 55.031 189.614 55.082 189.511 55.082H177.065ZM191.844 34.1202H212.38L202.89 9.63935C202.631 9.02732 202.371 9.02732 202.112 9.63935L191.844 34.1202ZM232.035 70C231.517 70 231.258 69.745 231.258 69.235C231.258 69.031 231.283 68.725 231.335 68.3169C231.387 67.9599 231.517 67.6284 231.724 67.3224C233.539 67.0674 234.758 66.5829 235.38 65.8689C236.002 65.2058 236.34 64.2368 236.391 62.9617C236.443 61.8397 236.469 60.1822 236.469 57.9891C236.521 55.745 236.547 53.2969 236.547 50.6448C236.599 47.9417 236.625 45.2896 236.625 42.6885C236.677 40.0364 236.703 37.7413 236.703 35.8033C236.703 33.6102 236.677 31.6211 236.625 29.8361C236.625 28 236.599 26.8525 236.547 26.3934C236.495 25.3734 236.288 24.6339 235.925 24.1749C235.614 23.7158 235.017 23.4353 234.136 23.3333L231.258 23.0273C230.895 23.0273 230.713 22.8233 230.713 22.4153C230.713 21.6503 230.972 20.9618 231.491 20.3497C232.321 20.0947 233.358 19.8907 234.602 19.7377C235.847 19.5847 236.936 19.5082 237.869 19.5082C239.01 19.5082 239.814 19.7887 240.281 20.3497C240.747 20.8597 240.981 21.7268 240.981 22.9508C240.981 23.4608 240.981 23.9454 240.981 24.4044C242.537 22.6703 244.377 21.2933 246.504 20.2732C248.63 19.2532 250.756 18.7432 252.882 18.7432C255.527 18.7432 257.964 19.4062 260.194 20.7322C262.424 22.0073 264.213 23.9199 265.561 26.4699C266.91 29.02 267.61 32.1822 267.661 35.9563C267.713 39.7304 267.039 43.1475 265.639 46.2077C264.239 49.2678 262.216 51.7158 259.572 53.5519C256.979 55.337 253.867 56.2295 250.237 56.2295C246.4 56.2295 243.237 55.1075 240.747 52.8634C240.799 54.9545 240.825 57.02 240.825 59.0601C240.877 61.0492 240.903 62.9618 240.903 64.7978C240.903 65.9199 241.344 66.5574 242.225 66.7104C242.485 66.7614 242.977 66.7869 243.703 66.7869C244.429 66.8379 245.129 66.8634 245.804 66.8634C246.53 66.9144 246.944 66.9399 247.048 66.9399C247.048 67.1949 247.022 67.5264 246.97 67.9344C246.97 68.3424 246.918 68.674 246.815 68.929C246.659 69.439 246.478 69.745 246.27 69.847C246.063 69.949 245.907 70 245.804 70H232.035ZM240.747 45.6721C241.422 47.7632 242.692 49.4718 244.559 50.7978C246.478 52.0729 248.656 52.7104 251.093 52.7104C254.567 52.7104 257.368 51.3588 259.494 48.6557C261.62 45.9526 262.709 42.255 262.761 37.5628C262.813 33.0237 261.776 29.4281 259.649 26.776C257.523 24.1239 254.723 22.7978 251.249 22.7978C249.174 22.7978 247.178 23.3333 245.259 24.4044C243.34 25.4244 241.888 26.8525 240.903 28.6885C240.799 34.2987 240.747 39.9599 240.747 45.6721ZM273.664 70C273.145 70 272.886 69.745 272.886 69.235C272.886 69.031 272.912 68.725 272.964 68.3169C273.016 67.9599 273.145 67.6284 273.353 67.3224C275.168 67.0674 276.386 66.5829 277.009 65.8689C277.631 65.2058 277.968 64.2368 278.02 62.9617C278.072 61.8397 278.098 60.1822 278.098 57.9891C278.15 55.745 278.176 53.2969 278.176 50.6448C278.227 47.9417 278.253 45.2896 278.253 42.6885C278.305 40.0364 278.331 37.7413 278.331 35.8033C278.331 33.6102 278.305 31.6211 278.253 29.8361C278.253 28 278.227 26.8525 278.176 26.3934C278.124 25.3734 277.916 24.6339 277.553 24.1749C277.242 23.7158 276.646 23.4353 275.764 23.3333L272.886 23.0273C272.523 23.0273 272.342 22.8233 272.342 22.4153C272.342 21.6503 272.601 20.9618 273.119 20.3497C273.949 20.0947 274.986 19.8907 276.231 19.7377C277.475 19.5847 278.564 19.5082 279.498 19.5082C280.639 19.5082 281.443 19.7887 281.909 20.3497C282.376 20.8597 282.609 21.7268 282.609 22.9508C282.609 23.4608 282.609 23.9454 282.609 24.4044C284.165 22.6703 286.006 21.2933 288.132 20.2732C290.258 19.2532 292.385 18.7432 294.511 18.7432C297.155 18.7432 299.593 19.4062 301.823 20.7322C304.052 22.0073 305.842 23.9199 307.19 26.4699C308.538 29.02 309.238 32.1822 309.29 35.9563C309.342 39.7304 308.668 43.1475 307.268 46.2077C305.867 49.2678 303.845 51.7158 301.2 53.5519C298.607 55.337 295.496 56.2295 291.866 56.2295C288.028 56.2295 284.865 55.1075 282.376 52.8634C282.428 54.9545 282.454 57.02 282.454 59.0601C282.506 61.0492 282.532 62.9618 282.532 64.7978C282.532 65.9199 282.972 66.5574 283.854 66.7104C284.113 66.7614 284.606 66.7869 285.332 66.7869C286.058 66.8379 286.758 66.8634 287.432 66.8634C288.158 66.9144 288.573 66.9399 288.677 66.9399C288.677 67.1949 288.651 67.5264 288.599 67.9344C288.599 68.3424 288.547 68.674 288.443 68.929C288.288 69.439 288.106 69.745 287.899 69.847C287.691 69.949 287.536 70 287.432 70H273.664ZM282.376 45.6721C283.05 47.7632 284.321 49.4718 286.188 50.7978C288.106 52.0729 290.284 52.7104 292.722 52.7104C296.196 52.7104 298.996 51.3588 301.122 48.6557C303.249 45.9526 304.338 42.255 304.39 37.5628C304.441 33.0237 303.404 29.4281 301.278 26.776C299.152 24.1239 296.352 22.7978 292.877 22.7978C290.803 22.7978 288.806 23.3333 286.888 24.4044C284.969 25.4244 283.517 26.8525 282.532 28.6885C282.428 34.2987 282.376 39.9599 282.376 45.6721ZM314.747 55.082C314.228 55.082 313.969 54.827 313.969 54.3169C313.969 54.1129 313.995 53.8324 314.047 53.4754C314.098 53.0674 314.228 52.7104 314.435 52.4044C316.199 52.2514 317.573 51.8179 318.558 51.1038C319.595 50.3898 320.166 49.1913 320.269 47.5082C320.373 46.3352 320.451 44.4991 320.503 42C320.555 39.4499 320.607 36.5428 320.658 33.2787C320.762 30.0146 320.814 26.725 320.814 23.4098C320.866 20.0947 320.892 17.0856 320.892 14.3825C320.892 12.4954 320.866 10.8634 320.814 9.48634C320.814 8.05829 320.788 7.06375 320.736 6.50273C320.684 5.5847 320.477 4.97268 320.114 4.66667C319.803 4.30966 319.232 4.08015 318.403 3.97815L315.213 3.67213C314.85 3.67213 314.669 3.46812 314.669 3.06011C314.669 2.7541 314.747 2.39708 314.902 1.98907C315.058 1.58106 315.239 1.24954 315.447 0.994535C316.432 0.688524 317.573 0.459016 318.869 0.30601C320.166 0.102003 321.307 0 322.292 0C323.485 0 324.418 0.178509 325.092 0.535522C325.818 0.841533 326.078 1.65756 325.87 2.98361C325.663 4.36065 325.481 6.34973 325.326 8.95082C325.222 11.5009 325.118 14.3825 325.014 17.5956C324.963 20.8087 324.911 24.0984 324.859 27.4645C324.859 30.8306 324.859 34.0437 324.859 37.1038C324.859 39.7559 324.859 42.153 324.859 44.2951C324.911 46.3862 324.963 48.0182 325.014 49.1913C325.066 50.1093 325.274 50.7723 325.637 51.1803C326.052 51.5373 326.57 51.7669 327.192 51.8689C327.607 51.9199 328.23 51.9709 329.059 52.0219C329.889 52.0219 330.563 52.0219 331.082 52.0219C331.082 52.2769 331.056 52.6084 331.004 53.0164C331.004 53.4244 330.952 53.7559 330.848 54.0109C330.693 54.521 330.511 54.827 330.304 54.929C330.096 55.031 329.941 55.082 329.837 55.082H314.747ZM341.798 70C340.242 70 338.479 69.541 336.508 68.623C336.404 68.2149 336.456 67.6539 336.664 66.9399C336.871 66.2259 337.053 65.7159 337.208 65.4098C337.571 65.4608 337.908 65.4863 338.219 65.4863C338.582 65.5373 338.945 65.5629 339.308 65.5629C342.057 65.5629 344.39 64.6193 346.309 62.7322C348.28 60.8962 350.017 58.1931 351.521 54.623L339.075 26.5464C338.245 24.8634 337.39 23.7924 336.508 23.3333C335.678 22.8743 334.512 22.6193 333.008 22.5683C333.008 22.3133 333.034 22.0073 333.085 21.6503C333.137 21.2423 333.189 20.9107 333.241 20.6557C333.397 20.1457 333.76 19.8907 334.33 19.8907H346.931C347.45 19.8907 347.709 20.1457 347.709 20.6557C347.709 20.8597 347.683 21.1658 347.632 21.5738C347.58 21.9308 347.45 22.2623 347.243 22.5683C346.05 22.6193 345.116 22.7468 344.442 22.9508C343.82 23.1038 343.509 23.5373 343.509 24.2514C343.509 24.6594 343.613 25.1439 343.82 25.7049L353.621 49.1148L362.178 26.3934C362.489 25.4754 362.644 24.7614 362.644 24.2514C362.644 23.6903 362.359 23.2823 361.789 23.0273C361.218 22.7723 360.233 22.6193 358.833 22.5683C358.833 22.3133 358.833 22.0328 358.833 21.7268C358.885 21.3698 358.936 21.0638 358.988 20.8087C359.092 20.4007 359.273 20.1457 359.533 20.0437C359.792 19.9417 359.948 19.8907 360 19.8907H371.512C371.927 19.8907 372.16 19.9927 372.212 20.1967C372.264 20.4007 372.29 20.6047 372.29 20.8087C372.29 20.8597 372.29 20.9107 372.29 20.9618C372.29 21.1658 372.264 21.4208 372.212 21.7268C372.16 22.0328 372.056 22.3133 371.901 22.5683C370.241 22.6193 368.945 23.0018 368.011 23.7158C367.13 24.4299 366.326 25.6794 365.6 27.4645L355.332 53.7814C354.347 56.8925 353.206 59.6721 351.91 62.1202C350.613 64.5683 349.135 66.4809 347.476 67.8579C345.816 69.286 343.924 70 341.798 70Z" fill="#003B6F" fill-opacity="0.6"/>
</svg>
