<svg width="146" height="39" viewBox="0 0 146 39" fill="none" xmlns="http://www.w3.org/2000/svg">
<g clip-path="url(#clip0_124_717)">
<path d="M146 0H0V39H146V0Z" fill="transparent"/>
<path d="M30.2812 6.73636H7.20955C6.41317 6.73636 5.76758 7.3713 5.76758 8.15454V30.8455C5.76758 31.6287 6.41317 32.2636 7.20955 32.2636H30.2812C31.0775 32.2636 31.7231 31.6287 31.7231 30.8455V8.15454C31.7231 7.3713 31.0775 6.73636 30.2812 6.73636Z" fill="#003B6F" fill-opacity="0.6"/>
<path d="M10.1517 26.4775C10.0219 26.4775 9.95703 26.4136 9.95703 26.286C9.95703 26.2349 9.96352 26.1647 9.9765 26.0754C9.98948 25.9733 10.0219 25.8839 10.0738 25.8074C10.6059 25.7435 10.9758 25.6031 11.1834 25.3862C11.4041 25.1692 11.5144 24.8246 11.5144 24.3523V15.0285C11.5144 14.6966 11.4754 14.4541 11.3976 14.3009C11.3197 14.1478 11.1769 14.0521 10.9693 14.0138C10.7617 13.9627 10.4567 13.9372 10.0544 13.9372C10.0544 13.8734 10.0609 13.7904 10.0738 13.6883C10.0868 13.5862 10.0998 13.5032 10.1128 13.4394C10.1517 13.299 10.1971 13.2224 10.249 13.2097C10.3139 13.1841 10.3529 13.1714 10.3658 13.1714H14.045C14.1748 13.1714 14.2397 13.2352 14.2397 13.3628C14.2397 13.4139 14.2267 13.4905 14.2008 13.5926C14.1748 13.6819 14.1359 13.7649 14.084 13.8415C13.6038 13.9053 13.2469 14.0201 13.0133 14.1861C12.7927 14.3392 12.6824 14.6392 12.6824 15.0859V24.3523C12.6824 24.8373 12.7083 25.1756 12.7602 25.367C12.8251 25.5585 12.9809 25.667 13.2274 25.6925C13.3183 25.7053 13.474 25.7116 13.6946 25.7116C13.9282 25.7116 14.1099 25.7116 14.2397 25.7116C14.2397 25.7755 14.2332 25.8584 14.2202 25.9605C14.2202 26.0626 14.2073 26.1456 14.1813 26.2094C14.1424 26.3371 14.0969 26.4136 14.045 26.4392C13.9931 26.4647 13.9542 26.4775 13.9282 26.4775H10.1517ZM15.0237 26.4775C14.8939 26.4775 14.829 26.4136 14.829 26.286C14.829 26.2349 14.8355 26.1647 14.8485 26.0754C14.8615 25.9733 14.8939 25.8839 14.9458 25.8074C15.3611 25.7563 15.6726 25.6287 15.8802 25.4245C16.0879 25.2202 16.289 24.8948 16.4837 24.448L21.292 13.1139C21.3569 12.9608 21.4737 12.8842 21.6424 12.8842H21.8176L26.4117 24.448C26.5934 24.9203 26.7491 25.2394 26.8789 25.4053C27.0087 25.5712 27.1969 25.667 27.4434 25.6925C27.5343 25.7053 27.6446 25.7116 27.7744 25.7116C27.9041 25.7116 28.0339 25.7116 28.1637 25.7116C28.1637 25.7755 28.1572 25.8584 28.1442 25.9605C28.1442 26.0626 28.1313 26.1456 28.1053 26.2094C28.0664 26.3371 28.0209 26.4136 27.969 26.4392C27.9171 26.4647 27.8782 26.4775 27.8522 26.4775H24.3677C24.2379 26.4775 24.173 26.4136 24.173 26.286C24.173 26.2349 24.1795 26.1647 24.1925 26.0754C24.2055 25.9733 24.2379 25.8839 24.2898 25.8074C24.6013 25.7691 24.8414 25.6989 25.0101 25.5968C25.1788 25.4947 25.2632 25.3287 25.2632 25.099C25.2632 24.9458 25.2113 24.7288 25.1074 24.448L24.1925 22.0931H18.372L17.3792 24.448C17.2364 24.8054 17.165 25.0671 17.165 25.233C17.165 25.3862 17.204 25.4947 17.2818 25.5585C17.3727 25.6223 17.4895 25.667 17.6322 25.6925C17.7231 25.7053 17.8464 25.7116 18.0021 25.7116C18.1708 25.7116 18.3201 25.7116 18.4498 25.7116C18.4498 25.7755 18.4433 25.8584 18.4304 25.9605C18.4304 26.0626 18.4174 26.1456 18.3914 26.2094C18.3525 26.3371 18.3071 26.4136 18.2552 26.4392C18.2033 26.4647 18.1643 26.4775 18.1384 26.4775H15.0237ZM18.7224 21.2316H23.8616L21.4866 15.1051C21.4217 14.9519 21.3569 14.9519 21.292 15.1051L18.7224 21.2316Z" fill="white"/>
<path d="M39.1133 6.73636V32.2636" stroke="#003B6F" stroke-opacity="0.6"/>
<path d="M46.9222 26.4775C46.7924 26.4775 46.7275 26.4136 46.7275 26.286C46.7275 26.2349 46.734 26.1647 46.747 26.0754C46.76 25.9733 46.7924 25.8839 46.8443 25.8074C47.3764 25.7435 47.7463 25.6031 47.9539 25.3862C48.1746 25.1692 48.2849 24.8246 48.2849 24.3523V15.0285C48.2849 14.6966 48.2459 14.4541 48.1681 14.3009C48.0902 14.1478 47.9474 14.0521 47.7398 14.0138C47.5322 13.9627 47.2272 13.9372 46.8249 13.9372C46.8249 13.8734 46.8314 13.7904 46.8443 13.6883C46.8573 13.5862 46.8703 13.5032 46.8833 13.4394C46.9222 13.299 46.9676 13.2224 47.0195 13.2097C47.0844 13.1841 47.1234 13.1714 47.1363 13.1714H50.8155C50.9453 13.1714 51.0102 13.2352 51.0102 13.3628C51.0102 13.4139 50.9972 13.4905 50.9713 13.5926C50.9453 13.6819 50.9064 13.7649 50.8545 13.8415C50.3743 13.9053 50.0174 14.0201 49.7838 14.1861C49.5632 14.3392 49.4529 14.6392 49.4529 15.0859V24.3523C49.4529 24.8373 49.4788 25.1756 49.5307 25.367C49.5956 25.5585 49.7514 25.667 49.9979 25.6925C50.0888 25.7053 50.2445 25.7116 50.4651 25.7116C50.6987 25.7116 50.8804 25.7116 51.0102 25.7116C51.0102 25.7755 51.0037 25.8584 50.9907 25.9605C50.9907 26.0626 50.9778 26.1456 50.9518 26.2094C50.9129 26.3371 50.8675 26.4136 50.8155 26.4392C50.7636 26.4647 50.7247 26.4775 50.6987 26.4775H46.9222ZM52.4756 26.4775C52.3458 26.4775 52.2809 26.4136 52.2809 26.286C52.2809 26.2349 52.2874 26.1647 52.3004 26.0754C52.3134 25.9733 52.3458 25.8839 52.3977 25.8074C52.826 25.7563 53.1375 25.6414 53.3321 25.4627C53.5398 25.2713 53.6436 24.9331 53.6436 24.448V15.0285C53.6436 14.6966 53.6177 14.4541 53.5658 14.3009C53.5268 14.1478 53.4165 14.0521 53.2348 14.0138C53.0661 13.9627 52.7806 13.9372 52.3783 13.9372C52.3783 13.8734 52.3848 13.7904 52.3977 13.6883C52.4107 13.5862 52.4237 13.5032 52.4367 13.4394C52.4756 13.2607 52.56 13.1714 52.6897 13.1714H57.0308C57.8225 13.1714 58.5622 13.2799 59.25 13.4968C59.9378 13.7011 60.4959 14.0457 60.9242 14.5307C61.3524 15.0029 61.5666 15.6411 61.5666 16.4452C61.5666 17.3897 61.294 18.2002 60.7489 18.8767C60.2169 19.5532 59.4706 20.051 58.5103 20.3701C59.237 21.5443 59.834 22.4824 60.3012 23.1844C60.7814 23.8864 61.1902 24.4161 61.5276 24.7735C61.865 25.1181 62.1765 25.3479 62.462 25.4627C62.7605 25.5776 63.0979 25.6351 63.4743 25.6351C63.4743 25.8776 63.4289 26.1137 63.338 26.3434C63.1823 26.4328 63.0071 26.4966 62.8124 26.5349C62.6307 26.5604 62.4361 26.5732 62.2284 26.5732C61.904 26.5732 61.5795 26.4647 61.2551 26.2477C60.9306 26.0307 60.5738 25.6159 60.1844 25.0033L57.4007 20.6381C56.8946 20.7274 56.3495 20.7721 55.7655 20.7721C55.6097 20.7721 55.4475 20.7657 55.2788 20.753C55.1231 20.7402 54.9673 20.7274 54.8116 20.7147V24.4672C54.8116 24.9394 54.8376 25.2585 54.8895 25.4245C54.9544 25.5776 55.1101 25.667 55.3567 25.6925C55.4475 25.7053 55.5708 25.7116 55.7265 25.7116C55.8953 25.7116 56.0445 25.7116 56.1743 25.7116C56.1743 25.7755 56.1678 25.8584 56.1548 25.9605C56.1548 26.0626 56.1418 26.1456 56.1159 26.2094C56.0769 26.3371 56.0315 26.4136 55.9796 26.4392C55.9277 26.4647 55.8888 26.4775 55.8628 26.4775H52.4756ZM54.8116 19.7574C55.3307 19.8467 55.8369 19.8914 56.33 19.8914C57.0957 19.8914 57.777 19.7829 58.374 19.5659C58.971 19.3362 59.4447 18.9916 59.7951 18.5321C60.1455 18.0598 60.3207 17.4599 60.3207 16.7324C60.3207 15.7624 59.9508 15.054 59.2111 14.6073C58.4843 14.1605 57.5564 13.9372 56.4273 13.9372C56.0899 13.9372 55.746 13.9563 55.3956 13.9946C55.0063 14.0329 54.8116 14.2244 54.8116 14.569V19.7574ZM63.7706 26.4775C63.6408 26.4775 63.5759 26.4136 63.5759 26.286C63.5759 26.2349 63.5824 26.1647 63.5954 26.0754C63.6084 25.9733 63.6408 25.8839 63.6927 25.8074C64.108 25.7563 64.4195 25.6287 64.6271 25.4245C64.8348 25.2202 65.0359 24.8948 65.2306 24.448L70.0389 13.1139C70.1038 12.9608 70.2206 12.8842 70.3893 12.8842H70.5645L75.1586 24.448C75.3403 24.9203 75.496 25.2394 75.6258 25.4053C75.7556 25.5712 75.9438 25.667 76.1903 25.6925C76.2812 25.7053 76.3915 25.7116 76.5213 25.7116C76.6511 25.7116 76.7808 25.7116 76.9106 25.7116C76.9106 25.7755 76.9041 25.8584 76.8911 25.9605C76.8911 26.0626 76.8782 26.1456 76.8522 26.2094C76.8133 26.3371 76.7679 26.4136 76.7159 26.4392C76.664 26.4647 76.6251 26.4775 76.5991 26.4775H73.1146C72.9848 26.4775 72.9199 26.4136 72.9199 26.286C72.9199 26.2349 72.9264 26.1647 72.9394 26.0754C72.9524 25.9733 72.9848 25.8839 73.0367 25.8074C73.3482 25.7691 73.5883 25.6989 73.757 25.5968C73.9257 25.4947 74.0101 25.3287 74.0101 25.099C74.0101 24.9458 73.9582 24.7288 73.8543 24.448L72.9394 22.0931H67.1189L66.1261 24.448C65.9833 24.8054 65.9119 25.0671 65.9119 25.233C65.9119 25.3862 65.9509 25.4947 66.0287 25.5585C66.1196 25.6223 66.2364 25.667 66.3791 25.6925C66.47 25.7053 66.5933 25.7116 66.749 25.7116C66.9177 25.7116 67.067 25.7116 67.1967 25.7116C67.1967 25.7755 67.1903 25.8584 67.1773 25.9605C67.1773 26.0626 67.1643 26.1456 67.1383 26.2094C67.0994 26.3371 67.054 26.4136 67.0021 26.4392C66.9502 26.4647 66.9112 26.4775 66.8853 26.4775H63.7706ZM67.4693 21.2316H72.6085L70.2335 15.1051C70.1687 14.9519 70.1038 14.9519 70.0389 15.1051L67.4693 21.2316ZM77.4888 26.286C77.4888 26.2349 77.4953 26.1647 77.5083 26.0754C77.5213 25.9733 77.5537 25.8839 77.6056 25.8074C78.0339 25.7563 78.3454 25.6414 78.54 25.4627C78.7477 25.2713 78.8515 24.9331 78.8515 24.448V15.0285C78.8515 14.6966 78.8256 14.4541 78.7736 14.3009C78.7347 14.1478 78.6244 14.0521 78.4427 14.0138C78.274 13.9627 77.9885 13.9372 77.5862 13.9372C77.5862 13.8734 77.5927 13.7904 77.6056 13.6883C77.6186 13.5862 77.6316 13.5032 77.6446 13.4394C77.6835 13.299 77.7289 13.2224 77.7808 13.2097C77.8457 13.1841 77.8847 13.1714 77.8976 13.1714H79.416C79.7275 13.1714 79.9611 13.2926 80.1168 13.5351L87.4947 24.1417C87.5207 24.18 87.5466 24.1928 87.5726 24.18C87.5985 24.1672 87.6115 24.1417 87.6115 24.1034V15.0285C87.6115 14.6966 87.5726 14.4541 87.4947 14.3009C87.4168 14.1478 87.2741 14.0521 87.0664 14.0138C86.8588 13.9627 86.5538 13.9372 86.1515 13.9372C86.1515 13.8734 86.158 13.7904 86.171 13.6883C86.184 13.5862 86.1969 13.5032 86.2099 13.4394C86.2488 13.299 86.2943 13.2224 86.3462 13.2097C86.4111 13.1841 86.45 13.1714 86.463 13.1714H89.6555C89.7853 13.1714 89.8502 13.2352 89.8502 13.3628C89.8502 13.4139 89.8372 13.4905 89.8112 13.5926C89.7853 13.6819 89.7464 13.7649 89.6944 13.8415C89.2532 13.9053 88.9417 14.0201 88.76 14.1861C88.5784 14.3392 88.4875 14.6392 88.4875 15.0859V26.4775H87.923C87.7283 26.4775 87.5726 26.3945 87.4558 26.2286L79.8638 15.3348C79.8378 15.2965 79.8119 15.2837 79.7859 15.2965C79.76 15.3093 79.747 15.3348 79.747 15.3731L79.7275 24.448C79.7275 24.9331 79.7729 25.2585 79.8638 25.4245C79.9546 25.5776 80.1233 25.667 80.3699 25.6925C80.5127 25.7053 80.6684 25.7116 80.8371 25.7116C81.0058 25.7116 81.1551 25.7116 81.2848 25.7116C81.2848 25.7755 81.2784 25.8584 81.2654 25.9605C81.2654 26.0626 81.2524 26.1456 81.2264 26.2094C81.1875 26.3371 81.1421 26.4136 81.0902 26.4392C81.0383 26.4647 80.9993 26.4775 80.9734 26.4775H77.6835C77.5537 26.4775 77.4888 26.4136 77.4888 26.286Z" fill="#003B6F"/>
<path d="M91.0394 26.4774C90.9096 26.4774 90.8447 26.4136 90.8447 26.286C90.8447 26.2349 90.8512 26.1647 90.8642 26.0754C90.8772 25.9733 90.9096 25.8839 90.9615 25.8074C91.3768 25.7563 91.6883 25.6287 91.8959 25.4244C92.1036 25.2202 92.3047 24.8948 92.4994 24.448L97.3077 13.1139C97.3726 12.9608 97.4893 12.8842 97.6581 12.8842H97.8333L102.427 24.448C102.609 24.9203 102.765 25.2394 102.895 25.4053C103.024 25.5712 103.213 25.667 103.459 25.6925C103.55 25.7052 103.66 25.7116 103.79 25.7116C103.92 25.7116 104.05 25.7116 104.179 25.7116C104.179 25.7754 104.173 25.8584 104.16 25.9605C104.16 26.0626 104.147 26.1456 104.121 26.2094C104.082 26.337 104.037 26.4136 103.985 26.4392C103.933 26.4647 103.894 26.4774 103.868 26.4774H100.383C100.254 26.4774 100.189 26.4136 100.189 26.286C100.189 26.2349 100.195 26.1647 100.208 26.0754C100.221 25.9733 100.254 25.8839 100.306 25.8074C100.617 25.7691 100.857 25.6989 101.026 25.5968C101.195 25.4946 101.279 25.3287 101.279 25.099C101.279 24.9458 101.227 24.7288 101.123 24.448L100.208 22.0931H94.3877L93.3949 24.448C93.2521 24.8054 93.1807 25.0671 93.1807 25.233C93.1807 25.3862 93.2197 25.4946 93.2975 25.5585C93.3884 25.6223 93.5052 25.667 93.6479 25.6925C93.7388 25.7052 93.8621 25.7116 94.0178 25.7116C94.1865 25.7116 94.3358 25.7116 94.4655 25.7116C94.4655 25.7754 94.459 25.8584 94.4461 25.9605C94.4461 26.0626 94.4331 26.1456 94.4071 26.2094C94.3682 26.337 94.3228 26.4136 94.2709 26.4392C94.2189 26.4647 94.18 26.4774 94.1541 26.4774H91.0394ZM94.7381 21.2316H99.8773L97.5023 15.105C97.4374 14.9519 97.3726 14.9519 97.3077 15.105L94.7381 21.2316ZM104.796 30.2108C104.666 30.2108 104.602 30.147 104.602 30.0194C104.602 29.9683 104.608 29.8917 104.621 29.7896C104.634 29.7003 104.666 29.6173 104.718 29.5407C105.173 29.4769 105.478 29.3556 105.633 29.177C105.789 29.011 105.873 28.7685 105.886 28.4494C105.899 28.1686 105.906 27.7538 105.906 27.205C105.919 26.6434 105.925 26.0307 105.925 25.367C105.938 24.6905 105.945 24.0268 105.945 23.3759C105.958 22.7122 105.964 22.1378 105.964 21.6528C105.964 21.104 105.958 20.6062 105.945 20.1594C105.945 19.7 105.938 19.4128 105.925 19.2979C105.912 19.0426 105.86 18.8576 105.77 18.7427C105.692 18.6278 105.542 18.5576 105.322 18.5321L104.602 18.4555C104.511 18.4555 104.465 18.4044 104.465 18.3023C104.465 18.1109 104.53 17.9386 104.66 17.7854C104.868 17.7216 105.127 17.6705 105.439 17.6322C105.75 17.594 106.023 17.5748 106.256 17.5748C106.542 17.5748 106.743 17.645 106.86 17.7854C106.976 17.913 107.035 18.13 107.035 18.4364C107.035 18.564 107.035 18.6852 107.035 18.8001C107.424 18.3662 107.885 18.0215 108.417 17.7663C108.949 17.511 109.481 17.3834 110.013 17.3834C110.675 17.3834 111.285 17.5493 111.843 17.8811C112.401 18.2002 112.849 18.6789 113.186 19.317C113.524 19.9552 113.699 20.7466 113.712 21.6911C113.725 22.6356 113.556 23.4908 113.206 24.2566C112.855 25.0224 112.349 25.635 111.687 26.0945C111.039 26.5413 110.26 26.7646 109.351 26.7646C108.391 26.7646 107.599 26.4838 106.976 25.9222C106.989 26.4455 106.996 26.9625 106.996 27.473C107.009 27.9708 107.015 28.4494 107.015 28.9089C107.015 29.1897 107.126 29.3493 107.346 29.3876C107.411 29.4003 107.535 29.4067 107.716 29.4067C107.898 29.4195 108.073 29.4258 108.242 29.4258C108.423 29.4386 108.527 29.445 108.553 29.445C108.553 29.5088 108.547 29.5918 108.534 29.6939C108.534 29.796 108.521 29.879 108.495 29.9428C108.456 30.0704 108.411 30.147 108.359 30.1725C108.307 30.198 108.268 30.2108 108.242 30.2108H104.796ZM106.976 24.1226C107.145 24.6459 107.463 25.0734 107.93 25.4053C108.411 25.7244 108.956 25.8839 109.566 25.8839C110.435 25.8839 111.136 25.5457 111.668 24.8692C112.2 24.1928 112.473 23.2674 112.486 22.0931C112.499 20.9572 112.239 20.0573 111.707 19.3936C111.175 18.7299 110.474 18.3981 109.604 18.3981C109.085 18.3981 108.586 18.5321 108.106 18.8001C107.625 19.0554 107.262 19.4128 107.015 19.8723C106.989 21.2763 106.976 22.693 106.976 24.1226ZM115.214 30.2108C115.084 30.2108 115.019 30.147 115.019 30.0194C115.019 29.9683 115.026 29.8917 115.039 29.7896C115.052 29.7003 115.084 29.6173 115.136 29.5407C115.59 29.4769 115.895 29.3556 116.051 29.177C116.207 29.011 116.291 28.7685 116.304 28.4494C116.317 28.1686 116.324 27.7538 116.324 27.205C116.337 26.6434 116.343 26.0307 116.343 25.367C116.356 24.6905 116.363 24.0268 116.363 23.3759C116.376 22.7122 116.382 22.1378 116.382 21.6528C116.382 21.104 116.376 20.6062 116.363 20.1594C116.363 19.7 116.356 19.4128 116.343 19.2979C116.33 19.0426 116.278 18.8576 116.187 18.7427C116.11 18.6278 115.96 18.5576 115.74 18.5321L115.019 18.4555C114.929 18.4555 114.883 18.4044 114.883 18.3023C114.883 18.1109 114.948 17.9386 115.078 17.7854C115.285 17.7216 115.545 17.6705 115.857 17.6322C116.168 17.594 116.441 17.5748 116.674 17.5748C116.96 17.5748 117.161 17.645 117.278 17.7854C117.394 17.913 117.453 18.13 117.453 18.4364C117.453 18.564 117.453 18.6852 117.453 18.8001C117.842 18.3662 118.303 18.0215 118.835 17.7663C119.367 17.511 119.899 17.3834 120.431 17.3834C121.093 17.3834 121.703 17.5493 122.261 17.8811C122.819 18.2002 123.267 18.6789 123.604 19.317C123.942 19.9552 124.117 20.7466 124.13 21.6911C124.143 22.6356 123.974 23.4908 123.624 24.2566C123.273 25.0224 122.767 25.635 122.105 26.0945C121.456 26.5413 120.678 26.7646 119.769 26.7646C118.809 26.7646 118.017 26.4838 117.394 25.9222C117.407 26.4455 117.414 26.9625 117.414 27.473C117.427 27.9708 117.433 28.4494 117.433 28.9089C117.433 29.1897 117.544 29.3493 117.764 29.3876C117.829 29.4003 117.952 29.4067 118.134 29.4067C118.316 29.4195 118.491 29.4258 118.66 29.4258C118.841 29.4386 118.945 29.445 118.971 29.445C118.971 29.5088 118.965 29.5918 118.952 29.6939C118.952 29.796 118.939 29.879 118.913 29.9428C118.874 30.0704 118.828 30.147 118.777 30.1725C118.725 30.198 118.686 30.2108 118.66 30.2108H115.214ZM117.394 24.1226C117.563 24.6459 117.881 25.0734 118.348 25.4053C118.828 25.7244 119.373 25.8839 119.983 25.8839C120.853 25.8839 121.554 25.5457 122.086 24.8692C122.618 24.1928 122.89 23.2674 122.903 22.0931C122.916 20.9572 122.657 20.0573 122.125 19.3936C121.593 18.7299 120.892 18.3981 120.022 18.3981C119.503 18.3981 119.004 18.5321 118.523 18.8001C118.043 19.0554 117.68 19.4128 117.433 19.8723C117.407 21.2763 117.394 22.693 117.394 24.1226ZM125.495 26.4774C125.366 26.4774 125.301 26.4136 125.301 26.286C125.301 26.2349 125.307 26.1647 125.32 26.0754C125.333 25.9733 125.366 25.8839 125.418 25.8074C125.859 25.7691 126.203 25.6606 126.449 25.4819C126.709 25.3032 126.852 25.0032 126.878 24.582C126.903 24.2885 126.923 23.829 126.936 23.2036C126.949 22.5654 126.962 21.8379 126.975 21.021C127.001 20.2041 127.014 19.3809 127.014 18.5512C127.027 17.7216 127.033 16.9685 127.033 16.2921C127.033 15.8198 127.027 15.4114 127.014 15.0668C127.014 14.7094 127.007 14.4605 126.994 14.3201C126.981 14.0903 126.929 13.9372 126.839 13.8606C126.761 13.7712 126.618 13.7138 126.41 13.6883L125.612 13.6117C125.521 13.6117 125.476 13.5606 125.476 13.4585C125.476 13.382 125.495 13.2926 125.534 13.1905C125.573 13.0884 125.619 13.0054 125.671 12.9416C125.917 12.865 126.203 12.8076 126.527 12.7693C126.852 12.7182 127.137 12.6927 127.384 12.6927C127.682 12.6927 127.916 12.7374 128.084 12.8267C128.266 12.9033 128.331 13.1075 128.279 13.4394C128.227 13.784 128.182 14.2818 128.143 14.9327C128.117 15.5709 128.091 16.2921 128.065 17.0962C128.052 17.9003 128.039 18.7235 128.026 19.5659C128.026 20.4083 128.026 21.2124 128.026 21.9783C128.026 22.642 128.026 23.2419 128.026 23.7779C128.039 24.3012 128.052 24.7097 128.065 25.0032C128.078 25.233 128.13 25.3989 128.221 25.501C128.325 25.5904 128.454 25.6478 128.61 25.6733C128.714 25.6861 128.87 25.6989 129.077 25.7116C129.285 25.7116 129.454 25.7116 129.583 25.7116C129.583 25.7754 129.577 25.8584 129.564 25.9605C129.564 26.0626 129.551 26.1456 129.525 26.2094C129.486 26.337 129.441 26.4136 129.389 26.4392C129.337 26.4647 129.298 26.4774 129.272 26.4774H125.495ZM132.265 30.2108C131.876 30.2108 131.435 30.0959 130.941 29.8662C130.915 29.7641 130.928 29.6237 130.98 29.445C131.032 29.2663 131.078 29.1387 131.117 29.0621C131.207 29.0748 131.292 29.0812 131.37 29.0812C131.46 29.094 131.551 29.1004 131.642 29.1004C132.33 29.1004 132.914 28.8642 133.394 28.392C133.887 27.9325 134.322 27.256 134.698 26.3626L131.584 19.3362C131.376 18.915 131.162 18.647 130.941 18.5321C130.734 18.4172 130.442 18.3534 130.065 18.3406C130.065 18.2768 130.072 18.2002 130.085 18.1109C130.098 18.0088 130.111 17.9258 130.124 17.862C130.163 17.7344 130.254 17.6705 130.396 17.6705H133.55C133.68 17.6705 133.745 17.7344 133.745 17.862C133.745 17.913 133.738 17.9896 133.725 18.0917C133.712 18.1811 133.68 18.264 133.628 18.3406C133.329 18.3534 133.096 18.3853 132.927 18.4364C132.771 18.4746 132.693 18.5831 132.693 18.7618C132.693 18.8639 132.719 18.9852 132.771 19.1256L135.224 24.9841L137.365 19.2979C137.443 19.0682 137.482 18.8895 137.482 18.7618C137.482 18.6214 137.411 18.5193 137.268 18.4555C137.125 18.3917 136.879 18.3534 136.528 18.3406C136.528 18.2768 136.528 18.2066 136.528 18.13C136.541 18.0407 136.554 17.9641 136.567 17.9003C136.593 17.7982 136.639 17.7344 136.703 17.7088C136.768 17.6833 136.807 17.6705 136.82 17.6705H139.701C139.805 17.6705 139.864 17.6961 139.877 17.7471C139.89 17.7982 139.896 17.8492 139.896 17.9003C139.896 17.913 139.896 17.9258 139.896 17.9386C139.896 17.9896 139.89 18.0534 139.877 18.13C139.864 18.2066 139.838 18.2768 139.799 18.3406C139.383 18.3534 139.059 18.4491 138.825 18.6278C138.605 18.8065 138.404 19.1192 138.222 19.5659L135.652 26.152C135.406 26.9306 135.12 27.6262 134.796 28.2388C134.471 28.8515 134.101 29.3301 133.686 29.6747C133.271 30.0321 132.797 30.2108 132.265 30.2108Z" fill="#003B6F" fill-opacity="0.6"/>
</g>
<defs>
<clipPath id="clip0_124_717">
<rect width="146" height="39" fill="white"/>
</clipPath>
</defs>
</svg>
