<svg width="64" height="64" viewBox="0 0 64 64" fill="none" xmlns="http://www.w3.org/2000/svg">
<path d="M23.3269 27.375C23.3269 27.6457 23.2195 27.9054 23.0284 28.0968C22.8373 28.2883 22.578 28.3958 22.3077 28.3958C22.0374 28.3958 21.7781 28.2883 21.587 28.0968C21.3958 27.9054 21.2885 27.6457 21.2885 27.375C21.2885 27.1043 21.3958 26.8446 21.587 26.6532C21.7781 26.4617 22.0374 26.3542 22.3077 26.3542C22.578 26.3542 22.8373 26.4617 23.0284 26.6532C23.2195 26.8446 23.3269 27.1043 23.3269 27.375ZM23.3269 27.375H22.3077M33.5192 27.375C33.5192 27.6457 33.4118 27.9054 33.2207 28.0968C33.0296 28.2883 32.7703 28.3958 32.5 28.3958C32.2297 28.3958 31.9704 28.2883 31.7793 28.0968C31.5882 27.9054 31.4808 27.6457 31.4808 27.375C31.4808 27.1043 31.5882 26.8446 31.7793 26.6532C31.9704 26.4617 32.2297 26.3542 32.5 26.3542C32.7703 26.3542 33.0296 26.4617 33.2207 26.6532C33.4118 26.8446 33.5192 27.1043 33.5192 27.375ZM33.5192 27.375H32.5M43.7115 27.375C43.7115 27.6457 43.6042 27.9054 43.413 28.0968C43.2219 28.2883 42.9626 28.3958 42.6923 28.3958C42.422 28.3958 42.1627 28.2883 41.9716 28.0968C41.7805 27.9054 41.6731 27.6457 41.6731 27.375C41.6731 27.1043 41.7805 26.8446 41.9716 26.6532C42.1627 26.4617 42.422 26.3542 42.6923 26.3542C42.9626 26.3542 43.2219 26.4617 43.413 26.6532C43.6042 26.8446 43.7115 27.1043 43.7115 27.375ZM43.7115 27.375H42.6923M6 35.5689C6 39.9244 9.05226 43.7192 13.3575 44.3535C16.3119 44.7891 19.2962 45.1239 22.3077 45.358V58L33.6796 46.6129C34.2426 46.0512 34.9997 45.7277 35.7942 45.7092C41.0985 45.5785 46.3901 45.1257 51.6398 44.3535C55.9477 43.7192 59 39.9272 59 35.5662V19.1838C59 14.8228 55.9477 11.0308 51.6425 10.3965C45.3041 9.46473 38.9063 8.99798 32.5 9.00001C25.9987 9.00001 19.6061 9.4764 13.3575 10.3965C9.05226 11.0308 6 14.8256 6 19.1838V35.5662V35.5689Z" stroke="#003B6F" stroke-opacity="0.4" stroke-width="1.5" stroke-linecap="round" stroke-linejoin="round"/>
</svg>
