<svg width="64" height="64" viewBox="0 0 64 64" fill="none" xmlns="http://www.w3.org/2000/svg">
<path d="M47.5633 42.8483C49.0027 41.8483 50.691 41.2833 52.4328 41.2187C54.1747 41.1541 55.8989 41.5926 57.406 42.4834C58.9132 43.3741 60.1416 44.6808 60.9492 46.2523C61.7569 47.8237 62.1107 49.5956 61.9698 51.3631C58.2779 52.6758 54.3566 53.1866 50.4588 52.8626C50.4468 49.3146 49.4425 45.8403 47.5633 42.8514C45.8953 40.1899 43.5944 37.9994 40.8734 36.4826C38.1525 34.9658 35.0995 34.1717 31.9968 34.1739C28.8947 34.1723 25.8423 34.9666 23.122 36.4834C20.4016 38.0001 18.1012 40.1904 16.4334 42.8514M50.4557 52.8594L50.4588 52.9565C50.4588 53.6608 50.4218 54.3558 50.3449 55.0414C44.7613 58.3005 38.4342 60.0104 31.9968 60C25.3198 60 19.0519 58.1968 13.6488 55.0414C13.5696 54.3169 13.5316 53.5884 13.5349 52.8594M13.5349 52.8594C9.6383 53.1952 5.71907 52.6863 2.03004 51.3662C1.88958 49.5993 2.24357 47.8279 3.05108 46.257C3.85858 44.6861 5.08663 43.3798 6.59322 42.4892C8.09982 41.5986 9.82343 41.1599 11.5648 41.224C13.3061 41.2881 14.994 41.8524 16.4334 42.8514M13.5349 52.8594C13.546 49.3118 14.5553 45.8406 16.4334 42.8514M41.2278 15.3913C41.2278 17.882 40.2553 20.2707 38.5241 22.0319C36.793 23.7932 34.445 24.7826 31.9968 24.7826C29.5486 24.7826 27.2007 23.7932 25.4696 22.0319C23.7384 20.2707 22.7659 17.882 22.7659 15.3913C22.7659 12.9006 23.7384 10.5119 25.4696 8.75065C27.2007 6.98944 29.5486 6 31.9968 6C34.445 6 36.793 6.98944 38.5241 8.75065C40.2553 10.5119 41.2278 12.9006 41.2278 15.3913ZM59.6897 24.7826C59.6897 25.7076 59.5107 26.6235 59.1627 27.478C58.8148 28.3326 58.3048 29.109 57.662 29.7631C57.0191 30.4171 56.2559 30.9359 55.4159 31.2899C54.5759 31.6439 53.6757 31.8261 52.7665 31.8261C51.8573 31.8261 50.9571 31.6439 50.1171 31.2899C49.2771 30.9359 48.5139 30.4171 47.871 29.7631C47.2282 29.109 46.7182 28.3326 46.3703 27.478C46.0224 26.6235 45.8433 25.7076 45.8433 24.7826C45.8433 22.9145 46.5727 21.123 47.871 19.8021C49.1694 18.4812 50.9304 17.7391 52.7665 17.7391C54.6027 17.7391 56.3636 18.4812 57.662 19.8021C58.9603 21.123 59.6897 22.9145 59.6897 24.7826ZM18.1504 24.7826C18.1504 25.7076 17.9713 26.6235 17.6234 27.478C17.2755 28.3326 16.7655 29.109 16.1226 29.7631C15.4797 30.4171 14.7165 30.9359 13.8766 31.2899C13.0366 31.6439 12.1363 31.8261 11.2272 31.8261C10.318 31.8261 9.41772 31.6439 8.57776 31.2899C7.7378 30.9359 6.97459 30.4171 6.3317 29.7631C5.68882 29.109 5.17886 28.3326 4.83094 27.478C4.48301 26.6235 4.30394 25.7076 4.30394 24.7826C4.30394 22.9145 5.03335 21.123 6.3317 19.8021C7.63006 18.4812 9.39101 17.7391 11.2272 17.7391C13.0633 17.7391 14.8243 18.4812 16.1226 19.8021C17.421 21.123 18.1504 22.9145 18.1504 24.7826Z" stroke="#003B6F" stroke-opacity="0.4" stroke-width="1.5" stroke-linecap="round" stroke-linejoin="round"/>
</svg>
