<svg width="55" height="55" viewBox="0 0 55 55" fill="none" xmlns="http://www.w3.org/2000/svg">
<path d="M27.5004 2.2002C13.5502 2.2002 2.20036 13.55 2.20036 27.5002C2.20036 31.8562 3.32566 36.1396 5.45966 39.9192L2.24106 51.4032C2.13546 51.7805 2.23776 52.1853 2.51056 52.4658C2.72066 52.6825 3.00666 52.8002 3.30036 52.8002C3.38836 52.8002 3.47746 52.7892 3.56436 52.7683L15.55 49.7994C19.2097 51.764 23.3314 52.8002 27.5004 52.8002C41.4506 52.8002 52.8004 41.4504 52.8004 27.5002C52.8004 13.55 41.4506 2.2002 27.5004 2.2002ZM40.2274 36.4278C39.6862 37.926 37.0902 39.2933 35.8428 39.477C34.723 39.6409 33.3062 39.7113 31.7508 39.2229C30.8081 38.9259 29.5981 38.5321 28.0482 37.871C21.5329 35.0924 17.2781 28.6145 16.9525 28.1866C16.628 27.7587 14.3004 24.7095 14.3004 21.5536C14.3004 18.3977 15.9779 16.8456 16.5741 16.2032C17.1703 15.5608 17.8732 15.4002 18.3066 15.4002C18.74 15.4002 19.1723 15.4057 19.5518 15.4233C19.9511 15.4431 20.4868 15.2726 21.0137 16.5244C21.5549 17.8092 22.854 20.9651 23.0146 21.2874C23.1774 21.6086 23.2852 21.9837 23.0696 22.4116C22.854 22.8395 22.7462 23.1068 22.4206 23.4819C22.095 23.857 21.7386 24.3179 21.446 24.6061C21.1204 24.9262 20.7827 25.2727 21.1611 25.9151C21.5395 26.5575 22.843 28.6574 24.7746 30.358C27.2551 32.5426 29.3484 33.2202 29.9974 33.5414C30.6464 33.8626 31.0259 33.8087 31.4043 33.3808C31.7827 32.9518 33.0279 31.5075 33.4602 30.8662C33.8925 30.2249 34.3259 30.3305 34.9221 30.545C35.5183 30.7584 38.7116 32.3094 39.3606 32.6306C40.0096 32.9518 40.443 33.1124 40.6058 33.3797C40.7686 33.6459 40.7686 34.9307 40.2274 36.4278Z" fill="white"/>
</svg>
