<svg width="77" height="77" viewBox="0 0 77 77" fill="none" xmlns="http://www.w3.org/2000/svg">
<path d="M59.7853 13.3003H14.2337C12.6614 13.3003 11.3867 14.5539 11.3867 16.1003V60.9003C11.3867 62.4467 12.6614 63.7003 14.2337 63.7003H59.7853C61.3577 63.7003 62.6323 62.4467 62.6323 60.9003V16.1003C62.6323 14.5539 61.3577 13.3003 59.7853 13.3003Z" fill="#003B6F" fill-opacity="0.6"/>
<path d="M20.0425 52.2762C19.7863 52.2762 19.6582 52.1502 19.6582 51.8982C19.6582 51.7974 19.671 51.6588 19.6966 51.4824C19.7223 51.2808 19.7863 51.1044 19.8888 50.9532C20.9393 50.8272 21.6696 50.55 22.0796 50.1216C22.5151 49.6932 22.7329 49.0128 22.7329 48.0804V29.6718C22.7329 29.0166 22.6561 28.5378 22.5023 28.2354C22.3486 27.933 22.0667 27.744 21.6568 27.6684C21.2468 27.5676 20.6447 27.5172 19.8504 27.5172C19.8504 27.3912 19.8632 27.2274 19.8888 27.0258C19.9144 26.8242 19.9401 26.6604 19.9657 26.5344C20.0425 26.2572 20.1322 26.106 20.2347 26.0808C20.3628 26.0304 20.4397 26.0052 20.4653 26.0052H27.7294C27.9856 26.0052 28.1137 26.1312 28.1137 26.3832C28.1137 26.484 28.0881 26.6352 28.0369 26.8368C27.9856 27.0132 27.9087 27.177 27.8063 27.3282C26.8582 27.4542 26.1536 27.681 25.6924 28.0086C25.2568 28.311 25.039 28.9032 25.039 29.7852V48.0804C25.039 49.038 25.0902 49.7058 25.1927 50.0838C25.3208 50.4618 25.6283 50.676 26.1151 50.7264C26.2945 50.7516 26.602 50.7642 27.0376 50.7642C27.4988 50.7642 27.8575 50.7642 28.1137 50.7642C28.1137 50.8902 28.1009 51.054 28.0753 51.2556C28.0753 51.4572 28.0497 51.621 27.9984 51.747C27.9216 51.999 27.8319 52.1502 27.7294 52.2006C27.6269 52.251 27.55 52.2762 27.4988 52.2762H20.0425ZM29.6616 52.2762C29.4054 52.2762 29.2773 52.1502 29.2773 51.8982C29.2773 51.7974 29.2901 51.6588 29.3157 51.4824C29.3413 51.2808 29.4054 51.1044 29.5079 50.9532C30.3278 50.8524 30.9428 50.6004 31.3527 50.1972C31.7627 49.794 32.1598 49.1514 32.5442 48.2694L42.0374 25.8918C42.1656 25.5894 42.3962 25.4382 42.7293 25.4382H43.0752L52.1456 48.2694C52.5043 49.2018 52.8118 49.8318 53.068 50.1594C53.3243 50.487 53.6958 50.676 54.1826 50.7264C54.362 50.7516 54.5798 50.7642 54.836 50.7642C55.0922 50.7642 55.3485 50.7642 55.6047 50.7642C55.6047 50.8902 55.5919 51.054 55.5663 51.2556C55.5663 51.4572 55.5406 51.621 55.4894 51.747C55.4125 51.999 55.3229 52.1502 55.2204 52.2006C55.1179 52.251 55.041 52.2762 54.9898 52.2762H48.11C47.8538 52.2762 47.7257 52.1502 47.7257 51.8982C47.7257 51.7974 47.7385 51.6588 47.7641 51.4824C47.7898 51.2808 47.8538 51.1044 47.9563 50.9532C48.5712 50.8776 49.0453 50.739 49.3784 50.5374C49.7115 50.3358 49.878 50.0082 49.878 49.5546C49.878 49.2522 49.7755 48.8238 49.5705 48.2694L47.7641 43.62H36.2723L34.3122 48.2694C34.0303 48.975 33.8894 49.4916 33.8894 49.8192C33.8894 50.1216 33.9663 50.3358 34.12 50.4618C34.2994 50.5878 34.53 50.676 34.8118 50.7264C34.9912 50.7516 35.2346 50.7642 35.5421 50.7642C35.8752 50.7642 36.1698 50.7642 36.426 50.7642C36.426 50.8902 36.4132 51.054 36.3876 51.2556C36.3876 51.4572 36.362 51.621 36.3107 51.747C36.2339 51.999 36.1442 52.1502 36.0417 52.2006C35.9392 52.251 35.8623 52.2762 35.8111 52.2762H29.6616ZM36.9641 41.919H47.1107L42.4218 29.823C42.2937 29.5206 42.1656 29.5206 42.0374 29.823L36.9641 41.919Z" fill="white"/>
</svg>
